<svg width="86" height="86" viewBox="0 0 86 86" fill="none" xmlns="http://www.w3.org/2000/svg">
<circle cx="43" cy="43" r="43" fill="#FF3939"/>
<path d="M41.3619 27.6962C41.8972 27.9255 42.3333 28.2677 42.6704 28.723C43.0244 29.1678 43.2618 29.6784 43.3827 30.2545C43.5035 30.8306 43.4888 31.4318 43.3386 32.058C43.0314 33.3376 42.2639 34.2261 41.036 34.7232C39.8217 35.2236 38.316 35.2582 36.519 34.8269C34.477 34.3369 32.9537 33.3953 31.949 32.0024L34.6061 29.6598C35.2247 30.4418 36.0785 30.9635 37.1676 31.2248C37.8619 31.3915 38.3901 31.4102 38.7522 31.2812C39.1312 31.1418 39.3762 30.8407 39.4873 30.3778C39.6115 29.8605 39.4955 29.4439 39.1394 29.1281C38.7865 28.7986 38.1472 28.5228 37.2215 28.3007L36.5885 28.1487L37.2354 25.4533L37.9501 25.6248C38.6035 25.7816 39.1587 25.7781 39.6156 25.6142C40.0724 25.4503 40.3515 25.1573 40.4528 24.7353C40.5312 24.4086 40.4759 24.129 40.287 23.8965C40.1013 23.6503 39.7974 23.4766 39.3754 23.3753C38.3953 23.1401 37.4709 23.4222 36.6024 24.2215L34.843 20.7542C35.2579 20.4651 35.7703 20.2497 36.3802 20.1081C37.0037 19.9698 37.6806 19.9091 38.4108 19.926C39.1443 19.9292 39.8786 20.0191 40.6137 20.1955C41.6211 20.4373 42.4632 20.7978 43.1401 21.277C43.8306 21.7594 44.3215 22.3236 44.6128 22.9694C44.9074 23.6016 44.9681 24.2785 44.7949 25C44.6675 25.5309 44.4309 26.0068 44.0851 26.4277C43.7393 26.8487 43.3298 27.1751 42.8566 27.4071C42.3867 27.6254 41.8885 27.7218 41.3619 27.6962ZM56.8504 30.2041C56.5629 31.4021 56.0682 32.4136 55.3663 33.2385C54.6677 34.0499 53.8462 34.623 52.902 34.9579C51.9714 35.2961 50.9888 35.341 49.9542 35.0927C48.9331 34.8476 48.078 34.3616 47.3886 33.6347C46.6992 32.9077 46.2273 32.0242 45.973 30.9842C45.722 29.9305 45.7403 28.8046 46.0278 27.6067C46.3153 26.4087 46.8084 25.404 47.507 24.5927C48.2089 23.7677 49.032 23.1877 49.9762 22.8529C50.9237 22.5044 51.908 22.4526 52.929 22.6977C53.9636 22.946 54.8172 23.4388 55.4897 24.1761C56.179 24.903 56.6492 25.7934 56.9003 26.847C57.1546 27.8871 57.138 29.0061 56.8504 30.2041ZM52.9298 29.2632C53.1193 28.4736 53.1299 27.7994 52.9616 27.2407C52.807 26.6853 52.5119 26.3553 52.0762 26.2508C51.6134 26.1397 51.1802 26.2949 50.7767 26.7163C50.3868 27.1411 50.0971 27.7482 49.9076 28.5378C49.7181 29.3274 49.7007 29.9999 49.8553 30.5553C50.0269 31.1004 50.344 31.4285 50.8069 31.5396C51.2425 31.6441 51.6537 31.4908 52.0403 31.0797C52.4438 30.6583 52.7403 30.0527 52.9298 29.2632ZM18.8098 53.112L21.3877 42.371L25.4513 43.3462L26.8153 49.1807L30.6992 44.6058L34.7424 45.5761L32.1646 56.3171L28.4889 55.435L29.8171 49.9011L27.1428 53.125L24.7333 52.5467L23.8136 48.4603L22.4854 53.9941L18.8098 53.112ZM34.2047 56.8068L36.7825 46.0658L40.6623 46.9969L39.3244 52.5716L44.0521 47.8105L47.5848 48.6583L45.0069 59.3993L41.1271 58.4681L42.4209 53.0772L37.7578 57.6595L34.2047 56.8068ZM47.047 59.8889L49.6249 49.1479L53.5047 50.0791L52.6274 53.7343L55.4862 54.4204L56.3635 50.7652L60.2433 51.6964L57.6655 62.4374L53.7857 61.5062L54.7266 57.5856L51.8678 56.8994L50.9268 60.8201L47.047 59.8889Z" fill="white"/>
</svg>
