<svg width="46" height="40" viewBox="0 0 46 40" fill="none" xmlns="http://www.w3.org/2000/svg">
<path d="M45.0359 7.11806H9.09515L8.80143 5.39518C8.32683 2.57087 5.87922 0.504559 3.01553 0.50953H0.979042C0.438274 0.50953 0 0.948187 0 1.48857C0 2.02934 0.438274 2.46761 0.979042 2.46761H3.00558C4.91624 2.46341 6.54887 3.84324 6.86324 5.7279L11.4743 32.6909C11.2731 33.2462 11.1703 33.8329 11.171 34.4238C11.1699 37.0985 13.2029 39.3354 15.8654 39.589C18.5284 39.8425 20.9469 38.0298 21.451 35.4028H30.2719C30.779 38.026 33.1964 39.8341 35.8559 39.5794C38.5154 39.3247 40.5457 37.0905 40.5457 34.4188C40.5457 31.7471 38.5154 29.5133 35.8559 29.2586C33.1964 29.0039 30.779 30.812 30.2719 33.4348H21.451C21.1029 31.6415 19.8375 30.1634 18.1195 29.5431C16.4012 28.9228 14.4833 29.2521 13.0702 30.4097L12.4728 26.9341H36.3224C38.9567 26.9249 41.2658 25.1711 41.9814 22.6359L45.966 8.34186C46.0456 8.04777 45.984 7.73302 45.7996 7.49017C45.6191 7.25153 45.3354 7.11309 45.0359 7.11806ZM35.3629 31.2025C37.1474 31.2025 38.5938 32.6493 38.5938 34.4333C38.5938 36.2178 37.1474 37.6642 35.3629 37.6642C33.5785 37.6642 32.1321 36.2178 32.1321 34.4333C32.134 32.65 33.5792 31.2044 35.3629 31.2025ZM16.3695 31.2025C18.154 31.2025 19.6003 32.6493 19.6003 34.4333C19.6003 36.2178 18.154 37.6642 16.3695 37.6642C14.585 37.6642 13.1387 36.2178 13.1387 34.4333C13.1394 34.0417 13.2125 33.6532 13.354 33.2879C13.3842 33.2279 13.4106 33.1655 13.4324 33.1021C13.9506 31.9444 15.1013 31.2002 16.3695 31.2025ZM40.1113 22.1268C39.637 23.818 38.0981 24.989 36.342 24.9955H12.1501L10.6521 16.2526H41.7462L40.1113 22.1268ZM42.2946 14.2945H10.3189L9.42825 9.07615H43.7437L42.2946 14.2945Z" fill="url(#paint0_linear)"/>
<defs>
<linearGradient id="paint0_linear" x1="1.81894e-07" y1="27.0996" x2="46.002" y2="26.9616" gradientUnits="userSpaceOnUse">
<stop offset="0.0520833" stop-color="#E73A14"/>
<stop offset="1" stop-color="#EA3C24"/>
</linearGradient>
</defs>
</svg>
