<svg width="58" height="58" viewBox="0 0 58 58" fill="none" xmlns="http://www.w3.org/2000/svg">
<circle cx="29" cy="29" r="29" fill="url(#paint0_linear)"/>
<path d="M14.3298 39.1425L21.4206 37.2426L21.0971 36.0352L15.8723 37.4351L15.8488 37.3473L17.6498 33.9707C19.0273 31.384 19.3392 30.2651 19.0054 29.0193C18.5407 27.285 16.7651 26.2784 14.7894 26.8078C12.8191 27.3358 11.6796 29.0764 12.209 31.0521L13.5043 30.7051C13.1616 29.4263 13.7624 28.3536 15.0631 28.0051C16.2815 27.6786 17.4145 28.175 17.7321 29.3604C18.0101 30.3977 17.6068 31.3293 16.6869 33.0993L14.0651 38.1547L14.3298 39.1425ZM28.0558 35.4647L32.0293 34.4C33.7416 33.9412 34.5146 32.6988 34.1675 31.4035C33.8131 30.0809 32.6176 29.6365 31.6533 29.7478C32.5499 29.2959 33.0823 28.5826 32.8073 27.5563C32.447 26.2117 31.0548 25.626 29.2437 26.1112L25.7971 27.0348L28.0558 35.4647ZM28.9676 33.9498L28.2735 31.3594L31.0176 30.6241C31.9066 30.3858 32.5871 30.7741 32.821 31.6467C33.018 32.3821 32.6008 32.9763 31.7117 33.2145L28.9676 33.9498ZM27.9735 30.2398L27.3441 27.8908L29.5613 27.2967C30.5986 27.0188 31.3459 27.2832 31.5356 27.9912C31.7371 28.7431 31.228 29.3677 30.1907 29.6457L27.9735 30.2398ZM41.9986 19.6819L40.6375 20.0466L38.3275 22.6655L38.6981 24.0485L40.954 21.4911L41.0199 21.4735L43.6492 31.2864L45.0103 30.9217L41.9986 19.6819Z" fill="white"/>
<defs>
<linearGradient id="paint0_linear" x1="2.29344e-07" y1="39.44" x2="58.0026" y2="39.292" gradientUnits="userSpaceOnUse">
<stop offset="0.0520833" stop-color="#E73A14"/>
<stop offset="1" stop-color="#EA3C24"/>
</linearGradient>
</defs>
</svg>
