<svg width="14" height="14" viewBox="0 0 19 19" fill="none" xmlns="http://www.w3.org/2000/svg">
<circle cx="9.5" cy="9.5" r="9.5" fill="#F8F9FA"/>
<g clip-path="url(#clip0)">
<path d="M9.99721 9.50027L13.897 5.60042C14.0343 5.46312 14.0343 5.24051 13.897 5.10322C13.7597 4.96594 13.5371 4.96592 13.3998 5.10322L9.5 9.00307L5.60017 5.10322C5.46287 4.96592 5.24026 4.96592 5.10298 5.10322C4.96569 5.24052 4.96567 5.46313 5.10298 5.60042L9.0028 9.50025L5.10298 13.4001C4.96567 13.5374 4.96567 13.76 5.10298 13.8973C5.17162 13.9659 5.2616 14.0002 5.35158 14.0002C5.44157 14.0002 5.53153 13.9659 5.60019 13.8973L9.5 9.99746L13.3998 13.8973C13.4685 13.9659 13.5584 14.0002 13.6484 14.0002C13.7384 14.0002 13.8284 13.9659 13.897 13.8973C14.0343 13.76 14.0343 13.5374 13.897 13.4001L9.99721 9.50027Z" fill="#262626"/>
</g>
<defs>
<clipPath id="clip0">
<rect width="9" height="9" fill="white" transform="translate(5 5)"/>
</clipPath>
</defs>
</svg>
