<svg width="30" height="30" viewBox="0 0 30 30" fill="none" xmlns="http://www.w3.org/2000/svg">
<path d="M25.5423 4.35654C22.7241 1.54884 18.975 0.00160218 14.9849 0C11.0037 0 7.24869 1.54587 4.41193 4.35287C1.57013 7.16469 0.00366211 10.9014 0 14.8611V14.8656V14.8684C0.000457764 17.265 0.630112 19.6827 1.82533 21.8896L0.0409699 30L8.24478 28.1339C10.3226 29.1811 12.6409 29.7331 14.9792 29.734H14.9851C18.9656 29.734 22.7206 28.1879 25.5579 25.3807C28.4022 22.5666 29.9693 18.8347 29.9712 14.8725C29.9723 10.9383 28.3997 7.2036 25.5423 4.35654ZM14.9849 27.3926H14.9796C12.8801 27.3917 10.7998 26.8645 8.96393 25.8678L8.57597 25.6572L3.1208 26.898L4.30573 21.5128L4.0773 21.1189C2.94159 19.1604 2.34146 16.9984 2.34146 14.8659C2.34581 7.96349 8.01704 2.34146 14.9844 2.34146C18.3504 2.34283 21.5131 3.64769 23.8898 6.01524C26.3024 8.41942 27.6306 11.5647 27.6295 14.8718C27.6267 21.7758 21.9543 27.3926 14.9849 27.3926Z" fill="url(#paint0_linear)"/>
<path d="M10.9074 8.31226H10.2505C10.0219 8.31226 9.6506 8.39786 9.33658 8.73958C9.02232 9.08153 8.13678 9.90802 8.13678 11.5889C8.13678 13.2698 9.36519 14.894 9.53639 15.1222C9.70782 15.3501 11.9076 18.9097 15.3916 20.2791C18.2872 21.4171 18.8766 21.1908 19.5049 21.1338C20.1334 21.077 21.533 20.3075 21.8186 19.5098C22.1043 18.7122 22.1043 18.0283 22.0187 17.8855C21.9329 17.7431 21.7042 17.6577 21.3616 17.487C21.0187 17.316 19.3387 16.4756 19.0245 16.3613C18.7102 16.2476 18.4818 16.1906 18.2531 16.5328C18.0245 16.8743 17.3513 17.6644 17.1513 17.8923C16.9515 18.1205 16.7514 18.1491 16.4086 17.9782C16.0657 17.8067 14.973 17.4396 13.6636 16.276C12.6444 15.3703 11.9371 14.2153 11.7371 13.8734C11.5373 13.5317 11.7158 13.3467 11.8877 13.1762C12.0417 13.0233 12.2498 12.8141 12.4212 12.6148C12.5924 12.4152 12.6412 12.2728 12.7556 12.0449C12.8698 11.8169 12.8126 11.6173 12.727 11.4466C12.6412 11.2756 11.9834 9.58621 11.6785 8.91055H11.6787C11.4219 8.34155 11.1516 8.32233 10.9074 8.31226Z" fill="url(#paint1_linear)"/>
<defs>
<linearGradient id="paint0_linear" x1="1.18512e-07" y1="20.4" x2="29.9725" y2="20.3236" gradientUnits="userSpaceOnUse">
<stop offset="0.0520833" stop-color="#E73A14"/>
<stop offset="1" stop-color="#EA3C24"/>
</linearGradient>
<linearGradient id="paint1_linear" x1="8.13678" y1="17.0694" x2="22.0691" y2="17.0309" gradientUnits="userSpaceOnUse">
<stop offset="0.0520833" stop-color="#E73A14"/>
<stop offset="1" stop-color="#EA3C24"/>
</linearGradient>
</defs>
</svg>
